<svg width="394" height="159" viewBox="0 0 394 159" fill="none" xmlns="http://www.w3.org/2000/svg">
<path d="M299.174 134.328H294.478V158.128H299.81V146.026C299.8 145.154 299.913 144.286 300.146 143.446C300.349 142.684 300.697 141.969 301.169 141.338C301.645 140.704 302.257 140.184 302.958 139.816C303.717 139.371 304.567 139.106 305.444 139.042C306.261 138.966 307.085 139.033 307.879 139.239V134.285C307.157 134.167 306.423 134.135 305.694 134.19C304.949 134.241 304.213 134.38 303.5 134.603C302.811 134.823 302.157 135.138 301.556 135.541C300.866 135.962 300.262 136.511 299.776 137.158C299.554 137.457 299.353 137.77 299.174 138.095V134.328ZM274.961 151.531C274.95 151.059 275.066 150.592 275.296 150.18C275.551 149.781 275.884 149.438 276.277 149.174C276.765 148.853 277.291 148.593 277.842 148.4C278.559 148.171 279.289 147.984 280.027 147.841C280.844 147.669 281.833 147.488 282.977 147.299L285.455 146.895C285.455 147.299 285.455 147.755 285.412 148.28C285.395 149.076 285.235 149.863 284.939 150.602C284.706 151.233 284.359 151.817 283.915 152.322C283.352 152.978 282.658 153.509 281.876 153.879C280.912 154.333 279.854 154.554 278.789 154.524C278.069 154.544 277.353 154.409 276.69 154.128C276.167 153.899 275.72 153.526 275.4 153.053C275.103 152.592 274.95 152.053 274.961 151.505M270.333 148.477C269.935 149.457 269.739 150.508 269.757 151.565C269.745 152.822 270.059 154.061 270.669 155.161C271.309 156.257 272.245 157.151 273.37 157.741C274.717 158.43 276.218 158.768 277.731 158.722C279.593 158.787 281.442 158.373 283.098 157.517C284.265 156.842 285.281 155.935 286.083 154.851V158.059H290.727V143.437C290.732 142.486 290.687 141.536 290.59 140.59C290.498 139.689 290.238 138.814 289.824 138.009C289.085 136.478 287.808 135.272 286.237 134.62C284.468 133.894 282.568 133.54 280.655 133.58C278.288 133.454 275.944 134.097 273.972 135.412C272.338 136.602 271.153 138.308 270.609 140.254L275.46 141.777C275.613 141.227 275.878 140.714 276.237 140.27C276.597 139.826 277.043 139.461 277.55 139.196C278.512 138.707 279.576 138.451 280.655 138.448C282.436 138.448 283.7 138.844 284.448 139.618C285.125 140.414 285.502 141.421 285.515 142.465L282.719 142.869C281.214 143.084 279.812 143.317 278.531 143.566C277.393 143.784 276.27 144.072 275.167 144.426C274.047 144.776 273.003 145.333 272.088 146.069C271.329 146.711 270.738 147.529 270.368 148.452M257.681 131.318C257.973 131.318 258.3 131.318 258.67 131.318C259.013 131.334 259.354 131.388 259.685 131.481C260.481 131.652 261.206 132.06 261.766 132.651C262.267 133.193 262.635 133.843 262.842 134.552C263.052 135.226 263.162 135.927 263.168 136.633C263.163 137.337 263.053 138.035 262.842 138.706C262.635 139.412 262.267 140.06 261.766 140.598C261.206 141.19 260.481 141.597 259.685 141.768C259.353 141.859 259.013 141.919 258.67 141.949C258.3 141.949 257.973 141.992 257.681 141.992H250.103V131.378L257.681 131.318ZM257.896 126.337H244.753V158.068H250.068V147.084H257.861C258.162 147.084 258.549 147.084 259.04 147.084C259.53 147.084 259.986 147.015 260.399 146.955C262.04 146.745 263.599 146.114 264.923 145.123C266.115 144.192 267.041 142.964 267.607 141.562C268.201 140.051 268.494 138.438 268.467 136.814C268.49 135.185 268.198 133.567 267.607 132.049C267.049 130.647 266.129 129.418 264.94 128.488C263.607 127.495 262.04 126.863 260.39 126.656C259.946 126.581 259.498 126.535 259.048 126.518C258.558 126.518 258.188 126.518 257.853 126.518M212.265 148.796C212.26 148.245 212.338 147.697 212.498 147.17C212.737 146.343 213.249 145.621 213.951 145.123C214.283 144.889 214.645 144.701 215.026 144.564L223.421 152.305C223.096 152.562 222.751 152.792 222.389 152.993C221.948 153.238 221.481 153.431 220.996 153.569C220.614 153.698 220.218 153.785 219.817 153.827C219.389 153.873 218.958 153.896 218.527 153.896C217.563 153.887 216.604 153.742 215.68 153.466C214.79 153.242 213.996 152.735 213.418 152.021C213.072 151.601 212.796 151.128 212.601 150.619C212.384 150.047 212.27 149.442 212.265 148.83M207.457 145.587C206.699 147.886 206.735 150.373 207.56 152.649C208.051 153.92 208.824 155.062 209.821 155.99C210.818 156.919 212.012 157.608 213.315 158.008C214.925 158.534 216.609 158.798 218.304 158.79C218.94 158.79 219.551 158.79 220.153 158.713C220.794 158.654 221.43 158.544 222.054 158.386C222.993 158.185 223.903 157.867 224.763 157.44C225.668 156.994 226.5 156.414 227.232 155.72L230.294 158.636L233.734 154.997L229.786 151.385C229.94 150.782 230.03 150.165 230.053 149.544C230.096 148.804 230.122 148.03 230.122 147.239V141.493H225.451V146.344C225.451 146.697 225.451 147.015 225.451 147.308L217.478 139.928L216.282 138.827C215.904 138.474 215.577 138.147 215.319 137.855C214.949 137.434 214.613 136.985 214.312 136.513C214.02 135.973 213.881 135.363 213.908 134.75C213.885 134.016 214.064 133.29 214.424 132.651C214.809 132.047 215.366 131.573 216.024 131.292C216.804 130.937 217.654 130.764 218.51 130.784C219.112 130.786 219.712 130.855 220.299 130.991C220.889 131.125 221.429 131.423 221.856 131.851C222.369 132.313 222.744 132.909 222.94 133.571L228.187 132.444C227.984 131.713 227.695 131.009 227.326 130.346C226.266 128.541 224.603 127.167 222.63 126.466C221.342 126.044 219.994 125.832 218.639 125.838C217.885 125.84 217.132 125.892 216.385 125.993C215.607 126.098 214.843 126.288 214.106 126.561C212.445 127.16 211.017 128.271 210.029 129.735C209.032 131.203 208.51 132.941 208.532 134.715C208.506 135.825 208.736 136.925 209.203 137.932C209.729 138.957 210.391 139.907 211.173 140.753C210.81 140.98 210.46 141.227 210.124 141.493C209.772 141.77 209.452 142.084 209.169 142.431C208.413 143.318 207.848 144.352 207.509 145.467M177.481 134.362H172.751V158.163H178.049V145.897C178.011 144.686 178.174 143.477 178.531 142.319C178.786 141.495 179.228 140.742 179.821 140.117C180.319 139.598 180.936 139.208 181.619 138.981C182.263 138.76 182.941 138.646 183.623 138.646C184.608 138.575 185.591 138.817 186.431 139.338C187.272 139.858 187.926 140.631 188.302 141.545C188.675 142.379 188.916 143.268 189.016 144.177C189.114 145.005 189.166 145.837 189.171 146.671V158.128H194.546V144.839C194.546 144.263 194.503 143.523 194.409 142.603C194.296 141.612 194.086 140.636 193.781 139.687C193.447 138.637 192.938 137.651 192.276 136.771C191.552 135.822 190.619 135.054 189.549 134.526C188.183 133.9 186.689 133.605 185.188 133.666C183.205 133.595 181.245 134.103 179.546 135.128C178.742 135.64 178.021 136.269 177.404 136.994L177.481 134.362ZM151.944 134.362H147.213V158.163H152.589V145.897C152.551 144.686 152.714 143.477 153.071 142.319C153.329 141.497 153.77 140.744 154.361 140.117C154.859 139.598 155.476 139.208 156.158 138.981C156.803 138.76 157.481 138.647 158.163 138.646C159.148 138.575 160.131 138.817 160.971 139.338C161.811 139.858 162.466 140.631 162.842 141.545C163.215 142.379 163.456 143.268 163.556 144.177C163.654 145.005 163.705 145.837 163.71 146.671V158.128H169.086V144.839C169.086 144.263 169.043 143.523 168.949 142.603C168.836 141.612 168.626 140.636 168.321 139.687C167.986 138.637 167.478 137.651 166.816 136.771C166.092 135.822 165.159 135.054 164.089 134.526C162.723 133.9 161.229 133.605 159.728 133.666C157.745 133.595 155.784 134.103 154.085 135.128C153.282 135.64 152.56 136.269 151.944 136.994V134.362ZM127.731 151.565C127.719 151.092 127.838 150.625 128.075 150.215C128.323 149.811 128.658 149.467 129.055 149.208C129.542 148.884 130.068 148.624 130.621 148.434C131.335 148.205 132.061 148.018 132.797 147.875C133.657 147.703 134.603 147.523 135.756 147.333L138.233 146.929C138.233 147.333 138.233 147.789 138.233 148.314C138.209 149.109 138.049 149.895 137.76 150.636C137.521 151.265 137.175 151.847 136.736 152.357C136.174 153.013 135.479 153.543 134.698 153.913C133.733 154.367 132.676 154.588 131.61 154.559C130.887 154.578 130.169 154.443 129.503 154.163C128.966 153.941 128.502 153.575 128.161 153.105C127.864 152.644 127.711 152.105 127.722 151.557M123.095 148.529C122.703 149.511 122.51 150.56 122.527 151.617C122.511 152.874 122.825 154.114 123.439 155.212C124.077 156.311 125.013 157.206 126.14 157.793C127.487 158.484 128.987 158.821 130.5 158.773C132.363 158.837 134.211 158.422 135.868 157.569C137.033 156.892 138.049 155.985 138.852 154.903V158.111H143.497V143.489C143.497 142.465 143.497 141.51 143.368 140.641C143.277 139.74 143.014 138.864 142.594 138.061C141.861 136.528 140.586 135.321 139.016 134.672C137.246 133.946 135.346 133.591 133.434 133.631C131.064 133.505 128.717 134.147 126.742 135.463C125.11 136.654 123.928 138.36 123.387 140.306L128.23 141.828C128.383 141.278 128.647 140.765 129.007 140.321C129.366 139.877 129.813 139.512 130.32 139.248C131.284 138.757 132.351 138.501 133.434 138.5C135.205 138.5 136.47 138.895 137.218 139.67C137.901 140.462 138.282 141.471 138.293 142.517L135.489 142.921C133.984 143.136 132.591 143.368 131.3 143.618C130.166 143.837 129.046 144.124 127.946 144.478C126.823 144.829 125.776 145.386 124.858 146.121C124.088 146.763 123.484 147.58 123.095 148.503M78.2727 88.2504L129.632 85.5065V65.6287L78.2727 85.6957V88.2504ZM129.606 102.58V88.3278L78.2727 91.0716V93.9273L129.606 102.58ZM78.2727 82.6681L129.675 62.601V42.3447L78.2727 79.3479V82.6681ZM90.8738 134.328H86.1774V158.128H91.5361V143.506C91.4774 142.191 91.9132 140.902 92.7575 139.893C93.1612 139.434 93.663 139.071 94.2257 138.831C94.7884 138.591 95.3978 138.481 96.0088 138.508C96.6279 138.478 97.2459 138.586 97.8175 138.826C98.3891 139.065 98.8997 139.43 99.3118 139.893C100.178 140.994 100.61 142.374 100.525 143.772V158.163H105.797V143.54C105.773 142.605 105.977 141.678 106.391 140.839C106.746 140.12 107.305 139.522 107.999 139.119C108.695 138.72 109.486 138.518 110.287 138.534C110.903 138.505 111.517 138.613 112.085 138.851C112.654 139.089 113.162 139.451 113.573 139.91C114.435 140.99 114.867 142.35 114.786 143.729V158.188H120.093V142.327C120.197 140.061 119.445 137.838 117.985 136.1C117.215 135.291 116.276 134.66 115.236 134.252C114.196 133.843 113.08 133.667 111.964 133.735C110.464 133.718 108.985 134.082 107.664 134.793C106.468 135.438 105.458 136.38 104.731 137.528C104.156 136.437 103.301 135.52 102.253 134.87C100.905 134.072 99.3553 133.678 97.7893 133.735C96.2657 133.711 94.7614 134.079 93.4198 134.801C92.4461 135.33 91.589 136.05 90.8996 136.917L90.8738 134.328ZM10.8808 141.949L24.5054 126.441H17.9769L5.30706 141.115V126.441H0V158.171H5.30706V143.317L18.6822 158.128H25.4257L10.8808 141.949ZM42.2845 158.128H46.9722V134.328H41.6394V146.559C41.6752 147.767 41.5125 148.973 41.1577 150.129C40.9058 150.956 40.464 151.713 39.8675 152.339C39.3711 152.856 38.7574 153.246 38.0784 153.475C37.4304 153.696 36.7504 153.809 36.0657 153.81C35.0035 153.865 33.9517 153.578 33.0638 152.993C32.3132 152.467 31.7188 151.748 31.3435 150.912C30.969 150.071 30.7281 149.177 30.6296 148.262C30.5318 147.44 30.4802 146.613 30.4748 145.785V134.328H25.1247V147.617C25.1247 148.185 25.1677 148.933 25.2623 149.854C25.3747 150.844 25.5851 151.821 25.8902 152.769C26.2238 153.819 26.7328 154.805 27.3955 155.685C28.1143 156.632 29.0414 157.4 30.1049 157.93C31.4709 158.555 32.9648 158.85 34.4658 158.79C36.4481 158.855 38.407 158.348 40.1083 157.328C40.9115 156.817 41.6334 156.187 42.2501 155.462L42.2845 158.128ZM67.4436 158.128H72.8195V144.839C72.8195 144.263 72.8194 143.523 72.6818 142.603C72.5652 141.613 72.355 140.637 72.0539 139.687C71.7151 138.633 71.2004 137.644 70.5315 136.762C69.8077 135.814 68.8746 135.046 67.8048 134.517C66.4357 133.893 64.9391 133.598 63.4353 133.657C61.4552 133.588 59.4977 134.096 57.8014 135.119C56.9982 135.631 56.2763 136.26 55.6597 136.986V126.441H50.9203V158.171H56.2962V145.897C56.2609 144.685 56.4265 143.476 56.7864 142.319C57.0384 141.494 57.4803 140.74 58.0766 140.117C58.5748 139.598 59.1918 139.208 59.8743 138.981C60.5192 138.76 61.1965 138.646 61.8785 138.646C62.9406 138.591 63.9924 138.878 64.8804 139.463C65.6126 139.998 66.1911 140.716 66.5576 141.545C66.9271 142.381 67.1678 143.268 67.2715 144.177C67.3696 145.005 67.4213 145.837 67.4264 146.671L67.4436 158.128ZM82.066 125.735H76.7245V158.128H82.0315L82.066 125.735ZM129.744 38.8611V18.5532L78.2727 73.2323V75.8815L129.744 38.8611ZM216.566 73.2667L132.763 18.2092V102.615L216.532 93.8929L216.566 73.2667ZM219.267 93.7639L251.161 102.511V0L181.128 46.5594L219.336 70.8583L219.267 93.7639ZM254.12 26.1483L315.671 70.4283V65.6803L254.12 0.335455V26.1483ZM254.12 54.8597L315.671 78.892V73.8946L254.12 29.6146V54.8597ZM254.12 82.582L315.671 85.8678V81.9111L254.12 57.8788V82.582ZM254.12 102.589L315.671 93.9101V88.6804L254.12 85.3947V102.589ZM322.32 158.498C323.869 158.529 325.417 158.399 326.939 158.111V153.655C325.626 153.872 324.292 153.932 322.965 153.836C322.454 153.82 321.954 153.677 321.513 153.418C321.071 153.16 320.701 152.795 320.437 152.357C320.133 151.819 319.976 151.211 319.981 150.593C319.981 149.879 319.981 149.036 319.981 148.082V138.483H326.974V134.319H319.972V127.714H314.691V134.319H310.39V138.483H314.691V148.4C314.691 149.75 314.691 150.98 314.734 152.038C314.772 153.14 315.067 154.218 315.594 155.186C316.185 156.3 317.142 157.175 318.303 157.664C319.582 158.211 320.955 158.503 322.346 158.524M347.041 158.137H352.417V144.839C352.417 144.263 352.365 143.523 352.27 142.603C352.162 141.612 351.952 140.634 351.642 139.687C351.311 138.637 350.805 137.652 350.146 136.771C349.418 135.823 348.482 135.055 347.411 134.526C346.045 133.9 344.551 133.605 343.05 133.666C341.067 133.596 339.106 134.104 337.407 135.128C336.606 135.64 335.887 136.269 335.274 136.994V134.345H330.535V158.145H335.91V145.897C335.877 144.686 336.04 143.478 336.392 142.319C336.651 141.497 337.092 140.744 337.682 140.117C338.182 139.6 338.798 139.21 339.48 138.981C340.125 138.761 340.802 138.648 341.484 138.646C342.549 138.59 343.604 138.876 344.495 139.463C345.227 139.998 345.805 140.716 346.172 141.545C346.541 142.381 346.782 143.268 346.886 144.177C346.984 145.005 347.036 145.837 347.041 146.671V158.137ZM372.406 143.704H360.708C360.882 142.486 361.355 141.331 362.085 140.34C362.678 139.647 363.426 139.103 364.269 138.753C365.112 138.403 366.026 138.258 366.936 138.328C367.732 138.261 368.533 138.388 369.27 138.698C370.007 139.008 370.658 139.492 371.168 140.108C371.881 141.181 372.308 142.419 372.406 143.704ZM377.799 147.712C378.049 145.198 377.726 142.66 376.853 140.289C376.104 138.304 374.762 136.598 373.008 135.403C371.129 134.212 368.936 133.612 366.712 133.683C364.55 133.64 362.417 134.191 360.545 135.274C358.764 136.336 357.32 137.881 356.382 139.73C355.342 141.835 354.828 144.161 354.885 146.508C354.839 148.734 355.366 150.935 356.416 152.898C357.422 154.704 358.911 156.193 360.717 157.199C362.658 158.271 364.848 158.811 367.065 158.765C369.289 158.782 371.471 158.161 373.352 156.976C375.251 155.796 376.729 154.047 377.576 151.978L372.329 150.387C371.873 151.429 371.111 152.308 370.144 152.907C369.117 153.505 367.943 153.803 366.755 153.767C365.882 153.822 365.008 153.67 364.205 153.325C363.401 152.98 362.689 152.451 362.128 151.78C361.243 150.579 360.721 149.149 360.622 147.66H377.825L377.799 147.712ZM393.97 139.291V134.337C393.248 134.218 392.515 134.187 391.785 134.242C391.043 134.292 390.31 134.431 389.6 134.655C388.909 134.874 388.252 135.19 387.648 135.592C386.962 136.016 386.361 136.565 385.876 137.21C385.652 137.508 385.448 137.821 385.265 138.147V134.337H380.578V158.137H385.902V146.026C385.891 145.154 386.004 144.286 386.237 143.446C386.44 142.684 386.788 141.969 387.261 141.338C387.74 140.704 388.354 140.184 389.059 139.816C389.813 139.37 390.661 139.105 391.536 139.042C392.352 138.965 393.176 139.032 393.97 139.239" fill="#1C1C09"/>
</svg>
