<svg width="140" height="57" viewBox="0 0 140 57" fill="none" xmlns="http://www.w3.org/2000/svg">
<path d="M106.314 47.7959H104.645V56.2535H106.54V51.9529C106.536 51.6431 106.576 51.3344 106.659 51.0359C106.731 50.7653 106.855 50.5111 107.023 50.2871C107.192 50.0618 107.409 49.877 107.658 49.746C107.928 49.5879 108.23 49.4937 108.542 49.4709C108.832 49.444 109.125 49.4678 109.407 49.5413V47.7807C109.15 47.7386 108.89 47.7274 108.63 47.747C108.366 47.765 108.104 47.8143 107.851 47.8938C107.606 47.9717 107.374 48.0839 107.16 48.2269C106.915 48.3767 106.7 48.5717 106.528 48.8016C106.449 48.9077 106.377 49.019 106.314 49.1347V47.7959ZM97.7093 53.9091C97.7055 53.7413 97.7466 53.5756 97.8285 53.4292C97.9188 53.2873 98.0375 53.1656 98.177 53.0716C98.3505 52.9576 98.5373 52.8652 98.7333 52.7965C98.9879 52.715 99.2472 52.6487 99.5096 52.5978C99.8 52.5367 100.152 52.4725 100.558 52.4053L101.438 52.2616C101.438 52.4053 101.438 52.5673 101.423 52.7537C101.417 53.0367 101.36 53.3163 101.255 53.579C101.172 53.8034 101.049 54.0107 100.891 54.1903C100.691 54.4235 100.444 54.612 100.167 54.7435C99.8241 54.905 99.4482 54.9835 99.0695 54.9728C98.8137 54.9799 98.5593 54.932 98.3237 54.8322C98.138 54.7505 97.9791 54.618 97.8652 54.4501C97.7598 54.2863 97.7055 54.0947 97.7093 53.8999M96.0649 52.824C95.9233 53.1722 95.8537 53.5455 95.8601 53.9213C95.8559 54.368 95.9675 54.8082 96.1841 55.199C96.4117 55.5886 96.7443 55.9063 97.1439 56.1159C97.6228 56.3608 98.1559 56.4807 98.6936 56.4644C99.3555 56.4877 100.012 56.3404 100.601 56.0365C101.016 55.7966 101.377 55.4741 101.661 55.0889V56.229H103.312V51.0329C103.314 50.695 103.298 50.3573 103.263 50.0211C103.23 49.7012 103.138 49.3902 102.991 49.1042C102.728 48.56 102.275 48.1314 101.716 47.8999C101.088 47.6417 100.412 47.5158 99.7328 47.53C98.8917 47.4855 98.0587 47.7139 97.3578 48.1811C96.7771 48.6038 96.356 49.2101 96.1627 49.9019L97.8866 50.4429C97.941 50.2474 98.035 50.0651 98.1628 49.9074C98.2906 49.7496 98.4494 49.6198 98.6293 49.526C98.9712 49.352 99.3492 49.2609 99.7328 49.26C100.365 49.26 100.815 49.4007 101.081 49.6757C101.321 49.9585 101.455 50.3164 101.46 50.6875L100.466 50.8311C99.9315 50.9075 99.4332 50.9901 98.9778 51.0787C98.5736 51.1563 98.1745 51.2584 97.7827 51.3844C97.3846 51.5088 97.0134 51.7068 96.6884 51.9682C96.4187 52.1963 96.2088 52.487 96.0771 52.8148M91.5687 46.7262C91.6726 46.7262 91.7887 46.7262 91.9202 46.7262C92.0422 46.7318 92.1632 46.7513 92.2809 46.7842C92.5637 46.845 92.8216 46.9899 93.0205 47.1999C93.1985 47.3925 93.3293 47.6237 93.4026 47.8754C93.4773 48.115 93.5164 48.3642 93.5188 48.6151C93.5169 48.8651 93.4777 49.1133 93.4026 49.3517C93.3292 49.6025 93.1984 49.8328 93.0205 50.0242C92.8216 50.2342 92.5637 50.3791 92.2809 50.4399C92.1628 50.472 92.0421 50.4935 91.9202 50.5041C91.7887 50.5041 91.6726 50.5194 91.5687 50.5194H88.8758V46.7475L91.5687 46.7262ZM91.6451 44.9564H86.9747V56.2321H88.8636V52.3288H91.6329C91.7398 52.3288 91.8774 52.3288 92.0516 52.3288C92.2258 52.3288 92.3878 52.3044 92.5346 52.283C93.1177 52.2085 93.6716 51.9842 94.1423 51.6319C94.5659 51.3013 94.8948 50.8648 95.096 50.3665C95.3072 49.8295 95.4111 49.2563 95.4016 48.6793C95.4099 48.1004 95.3061 47.5254 95.096 46.986C94.8977 46.4877 94.5707 46.051 94.1484 45.7205C93.6746 45.3676 93.1176 45.1434 92.5315 45.0695C92.3738 45.0429 92.2145 45.0265 92.0547 45.0206C91.8805 45.0206 91.749 45.0206 91.6298 45.0206M75.43 52.9371C75.428 52.7415 75.4558 52.5467 75.5125 52.3594C75.5976 52.0655 75.7797 51.8091 76.0291 51.6319C76.147 51.5489 76.2755 51.4821 76.4112 51.4333L79.3944 54.1842C79.2789 54.2754 79.1562 54.3572 79.0276 54.4287C78.8709 54.5157 78.7048 54.5844 78.5324 54.6335C78.3966 54.6792 78.2562 54.7099 78.1137 54.7252C77.9614 54.7414 77.8083 54.7496 77.6552 54.7496C77.3125 54.7462 76.9719 54.6948 76.6435 54.5968C76.327 54.517 76.045 54.3368 75.8396 54.0833C75.7165 53.934 75.6185 53.7658 75.5492 53.5851C75.4721 53.3819 75.4317 53.1666 75.43 52.9493M73.7214 51.797C73.4519 52.6139 73.4648 53.4977 73.7581 54.3064C73.9325 54.7579 74.2072 55.1639 74.5614 55.4938C74.9157 55.8236 75.3401 56.0688 75.8029 56.2107C76.3751 56.3977 76.9737 56.4916 77.5757 56.4888C77.8019 56.4888 78.0189 56.4888 78.2329 56.4613C78.4607 56.4402 78.6866 56.4014 78.9084 56.3452C79.242 56.2735 79.5655 56.1606 79.8712 56.0089C80.1927 55.8504 80.4884 55.6443 80.7484 55.3976L81.8366 56.4338L83.0592 55.1409L81.6562 53.8571C81.7109 53.6431 81.7427 53.4238 81.751 53.203C81.7663 52.9402 81.7754 52.6651 81.7754 52.3839V50.3421H80.1157V52.066C80.1157 52.1913 80.1157 52.3044 80.1157 52.4083L77.2823 49.7858L76.8574 49.3945C76.7229 49.2692 76.6068 49.1531 76.5151 49.0491C76.3838 48.8996 76.2643 48.7402 76.1575 48.5723C76.0537 48.3803 76.004 48.1637 76.0138 47.9457C76.0056 47.685 76.0691 47.4271 76.1972 47.1999C76.3337 46.9853 76.5319 46.817 76.7657 46.717C77.0428 46.591 77.3448 46.5293 77.6491 46.5366C77.8631 46.5372 78.0763 46.5618 78.2848 46.61C78.4944 46.6576 78.6862 46.7635 78.8381 46.9157C79.0204 47.08 79.1537 47.2916 79.2232 47.527L81.0877 47.1266C81.0158 46.8667 80.9132 46.6163 80.7821 46.3808C80.4052 45.7393 79.8142 45.2512 79.1132 45.0022C78.6554 44.8522 78.1766 44.7769 77.6949 44.7791C77.4271 44.7797 77.1595 44.7981 76.8941 44.8341C76.6175 44.8713 76.3458 44.939 76.0841 45.0359C75.4938 45.2487 74.9864 45.6437 74.6353 46.1637C74.2811 46.6853 74.0955 47.3031 74.1034 47.9335C74.0942 48.3278 74.1757 48.7189 74.3419 49.0767C74.5286 49.4411 74.7641 49.7783 75.0418 50.0792C74.9128 50.1599 74.7883 50.2477 74.6689 50.3421C74.544 50.4404 74.4302 50.5521 74.3296 50.6752C74.061 50.9906 73.8602 51.3579 73.7397 51.7542M63.0692 47.8082H61.3881V56.2657H63.271V51.907C63.2576 51.4767 63.3154 51.047 63.4421 50.6355C63.5329 50.3429 63.6898 50.0752 63.9006 49.853C64.0776 49.6687 64.2969 49.5302 64.5394 49.4496C64.7686 49.3707 65.0093 49.3304 65.2516 49.3303C65.6019 49.3053 65.9512 49.3913 66.2497 49.5762C66.5483 49.7612 66.7809 50.0356 66.9144 50.3604C67.0471 50.6571 67.1327 50.9726 67.1681 51.2957C67.2029 51.5899 67.2213 51.8859 67.2231 52.1821V56.2535H69.1335V51.5311C69.1335 51.3263 69.1182 51.0634 69.0846 50.7364C69.0446 50.3845 68.9699 50.0374 68.8614 49.7002C68.7426 49.3272 68.5618 48.9769 68.3265 48.664C68.0693 48.327 67.7377 48.054 67.3576 47.8662C66.8723 47.6439 66.3413 47.5391 65.8079 47.5606C65.1033 47.5355 64.4066 47.716 63.8028 48.0802C63.5174 48.262 63.2609 48.4856 63.0417 48.7435L63.0692 47.8082ZM53.9943 47.8082H52.3132V56.2657H54.2235V51.907C54.2102 51.4767 54.268 51.047 54.3947 50.6355C54.4866 50.3435 54.6434 50.076 54.8532 49.853C55.0302 49.6687 55.2495 49.5302 55.492 49.4496C55.7212 49.3709 55.9618 49.3307 56.2042 49.3303C56.5545 49.3053 56.9037 49.3913 57.2023 49.5762C57.5008 49.7612 57.7334 50.0356 57.867 50.3604C57.9997 50.6571 58.0853 50.9726 58.1206 51.2957C58.1555 51.5899 58.1739 51.8859 58.1757 52.1821V56.2535H60.086V51.5311C60.086 51.3263 60.0707 51.0634 60.0371 50.7364C59.9972 50.3845 59.9224 50.0374 59.814 49.7002C59.6952 49.3272 59.5143 48.9769 59.2791 48.664C59.0219 48.327 58.6903 48.054 58.3102 47.8662C57.8248 47.6439 57.2939 47.5391 56.7605 47.5606C56.0558 47.5355 55.3591 47.716 54.7554 48.0802C54.47 48.262 54.2134 48.4856 53.9943 48.7435V47.8082ZM45.39 53.9213C45.386 53.7532 45.4283 53.5872 45.5123 53.4414C45.6005 53.2979 45.7195 53.1757 45.8607 53.0838C46.0336 52.9686 46.2206 52.8761 46.417 52.8087C46.6707 52.7272 46.9289 52.6609 47.1904 52.61C47.496 52.5489 47.8322 52.4847 48.2418 52.4175L49.1221 52.2738C49.1221 52.4175 49.1221 52.5795 49.1221 52.7659C49.1134 53.0486 49.0565 53.3277 48.954 53.5912C48.8691 53.8145 48.746 54.0213 48.5903 54.2025C48.3903 54.4357 48.1435 54.6242 47.8659 54.7558C47.523 54.9169 47.1472 54.9954 46.7686 54.985C46.5118 54.9918 46.2565 54.9439 46.0197 54.8444C45.8291 54.7654 45.6641 54.6353 45.5429 54.4684C45.4374 54.3046 45.3832 54.1131 45.387 53.9183M43.7425 52.8423C43.6035 53.1912 43.5349 53.5641 43.5408 53.9397C43.5351 54.3866 43.6468 54.8271 43.8648 55.2173C44.0915 55.6076 44.4243 55.9256 44.8246 56.1343C45.3032 56.3799 45.8365 56.4998 46.3743 56.4827C47.0361 56.5052 47.6927 56.3579 48.2816 56.0548C48.6957 55.8141 49.0565 55.4917 49.3422 55.1073V56.2474H50.9927V51.0512C50.9927 50.6875 50.9927 50.3482 50.9469 50.0395C50.9146 49.7191 50.8212 49.4078 50.6718 49.1225C50.4112 48.5778 49.9583 48.1489 49.4003 47.9182C48.7714 47.6601 48.0962 47.5342 47.4165 47.5484C46.5744 47.5034 45.7403 47.7318 45.0385 48.1994C44.4586 48.6223 44.0386 49.2287 43.8465 49.9203L45.5673 50.4613C45.6218 50.2657 45.7158 50.0834 45.8435 49.9257C45.9713 49.768 46.1301 49.6382 46.3101 49.5443C46.6529 49.3699 47.0319 49.2788 47.4165 49.2784C48.0462 49.2784 48.4955 49.419 48.7614 49.6941C49.004 49.9758 49.1394 50.3341 49.1435 50.7058L48.1471 50.8495C47.6122 50.9259 47.117 51.0084 46.6585 51.097C46.2554 51.175 45.8573 51.2771 45.4665 51.4027C45.0676 51.5274 44.6955 51.7254 44.3691 51.9865C44.0957 52.2147 43.8809 52.505 43.7425 52.8332M27.8148 31.4219L46.0655 30.4469V23.3831L27.8148 30.5141V31.4219ZM46.0564 36.5142V31.4494L27.8148 32.4245V33.4392L46.0564 36.5142ZM27.8148 29.4382L46.0808 22.3072V15.109L27.8148 28.2584V29.4382ZM32.2926 47.7959H30.6238V56.2535H32.528V51.0573C32.5071 50.5902 32.662 50.1322 32.962 49.7735C33.1055 49.6103 33.2838 49.4813 33.4838 49.3961C33.6837 49.3109 33.9003 49.2718 34.1174 49.2814C34.3374 49.2705 34.557 49.3091 34.7602 49.3942C34.9633 49.4794 35.1447 49.609 35.2911 49.7735C35.599 50.1647 35.7523 50.6553 35.7221 51.1521V56.2657H37.5958V51.0695C37.5872 50.7372 37.6595 50.4078 37.8067 50.1098C37.9329 49.8542 38.1318 49.6416 38.3783 49.4985C38.6254 49.3567 38.9065 49.2849 39.1913 49.2906C39.4101 49.2802 39.6284 49.3187 39.8303 49.4033C40.0323 49.4879 40.2129 49.6165 40.3589 49.7797C40.6653 50.1633 40.8189 50.6467 40.7899 51.1368V56.2749H42.6758V50.6386C42.7128 49.8331 42.4455 49.0431 41.9269 48.4256C41.653 48.1381 41.3196 47.914 40.9501 47.7688C40.5805 47.6236 40.1837 47.5609 39.7873 47.585C39.2543 47.5791 38.7285 47.7085 38.2591 47.961C37.8341 48.1904 37.4752 48.525 37.2168 48.933C37.0125 48.5455 36.7087 48.2195 36.3365 47.9885C35.8572 47.705 35.3066 47.565 34.7501 47.585C34.2087 47.5768 33.6741 47.7073 33.1974 47.9641C32.8514 48.152 32.5468 48.4077 32.3018 48.716L32.2926 47.7959ZM3.86656 50.5041L8.70816 44.9931H6.38823L1.8859 50.2076V44.9931H0V56.2688H1.8859V50.9901L6.63887 56.2535H9.03522L3.86656 50.5041ZM15.0261 56.2535H16.6919V47.7959H14.7968V52.1424C14.8096 52.5717 14.7518 53.0003 14.6257 53.4109C14.5362 53.7049 14.3792 53.9739 14.1672 54.1964C13.9908 54.3801 13.7727 54.5185 13.5314 54.5999C13.3012 54.6785 13.0595 54.7188 12.8162 54.7191C12.4387 54.7385 12.065 54.6367 11.7494 54.4287C11.4827 54.2418 11.2715 53.9862 11.1381 53.689C11.0051 53.3903 10.9195 53.0727 10.8844 52.7476C10.8497 52.4554 10.8313 52.1615 10.8294 51.8673V47.7959H8.92824V52.5183C8.92824 52.7201 8.94352 52.986 8.97714 53.3131C9.01709 53.665 9.09183 54.0121 9.20027 54.3492C9.31883 54.7223 9.49968 55.0727 9.73517 55.3854C9.99062 55.7217 10.3201 55.9947 10.698 56.1832C11.1834 56.4052 11.7143 56.5099 12.2477 56.4888C12.9521 56.5119 13.6482 56.3315 14.2528 55.9692C14.5382 55.7874 14.7947 55.5638 15.0139 55.3059L15.0261 56.2535ZM23.9666 56.2535H25.8769V51.5311C25.8769 51.3263 25.8769 51.0634 25.828 50.7364C25.7866 50.3847 25.7119 50.0377 25.6049 49.7002C25.4845 49.3257 25.3016 48.9744 25.0639 48.661C24.8067 48.3239 24.4751 48.0509 24.0949 47.8632C23.6084 47.6412 23.0766 47.5365 22.5422 47.5575C21.8386 47.5328 21.1429 47.7134 20.5401 48.0772C20.2547 48.259 19.9982 48.4826 19.7791 48.7404V44.9931H18.0949V56.2688H20.0052V51.907C19.9927 51.4765 20.0516 51.0468 20.1795 50.6355C20.269 50.3424 20.426 50.0744 20.638 49.853C20.815 49.6687 21.0342 49.5302 21.2768 49.4496C21.5059 49.3707 21.7466 49.3304 21.989 49.3303C22.3664 49.311 22.7402 49.4127 23.0557 49.6207C23.3159 49.8107 23.5215 50.0658 23.6517 50.3604C23.783 50.6576 23.8685 50.9729 23.9054 51.2957C23.9403 51.5899 23.9586 51.8859 23.9604 52.1821L23.9666 56.2535ZM29.1627 44.7424H27.2646V56.2535H29.1505L29.1627 44.7424ZM46.1053 13.8711V6.65454L27.8148 26.0851V27.0266L46.1053 13.8711ZM76.9583 26.0974L47.1781 6.53228V36.5264L76.9461 33.427L76.9583 26.0974ZM77.918 33.3812L89.2518 36.4897V0.0615234L64.3652 16.6067L77.9425 25.2415L77.918 33.3812ZM90.3033 9.35349L112.176 25.0887V23.4015L90.3033 0.18073V9.35349ZM90.3033 19.5563L112.176 28.0964V26.3205L90.3033 10.5853V19.5563ZM90.3033 29.4076L112.176 30.5752V29.1692L90.3033 20.6292V29.4076ZM90.3033 36.5172L112.176 33.4331V31.5747L90.3033 30.4071V36.5172ZM114.539 56.3849C115.089 56.3958 115.639 56.3497 116.18 56.2474V54.6641C115.714 54.7409 115.24 54.7625 114.768 54.7282C114.586 54.7227 114.409 54.6717 114.252 54.5798C114.095 54.488 113.963 54.3583 113.869 54.2025C113.761 54.0114 113.706 53.7954 113.707 53.5759C113.707 53.3222 113.707 53.0227 113.707 52.6834V49.2723H116.192V47.7929H113.704V45.4454H111.828V47.7929H110.299V49.2723H111.828V52.7965C111.828 53.2764 111.828 53.7135 111.843 54.0894C111.856 54.481 111.961 54.864 112.149 55.2081C112.359 55.6037 112.699 55.9147 113.111 56.0884C113.566 56.2828 114.054 56.3867 114.548 56.3941M123.323 56.2565H125.234V51.5311C125.234 51.3263 125.215 51.0634 125.182 50.7364C125.143 50.3842 125.069 50.037 124.959 49.7002C124.841 49.3273 124.661 48.977 124.427 48.664C124.168 48.3272 123.836 48.0543 123.455 47.8662C122.969 47.6439 122.439 47.5391 121.905 47.5606C121.201 47.5358 120.504 47.7163 119.9 48.0802C119.615 48.262 119.36 48.4856 119.142 48.7435V47.8021H117.458V56.2596H119.368V51.907C119.356 51.4767 119.414 51.0473 119.539 50.6355C119.631 50.3435 119.788 50.076 119.998 49.853C120.175 49.6692 120.394 49.5308 120.637 49.4496C120.866 49.3712 121.107 49.3309 121.349 49.3303C121.727 49.3105 122.102 49.4123 122.419 49.6207C122.679 49.8107 122.884 50.0658 123.015 50.3604C123.146 50.6576 123.231 50.9729 123.268 51.2957C123.303 51.5899 123.322 51.8859 123.323 52.1821V56.2565ZM132.337 51.1276H128.18C128.242 50.6949 128.41 50.2843 128.669 49.9325C128.88 49.686 129.146 49.4927 129.446 49.3685C129.745 49.2442 130.07 49.1924 130.393 49.2173C130.676 49.1936 130.961 49.2387 131.223 49.3489C131.485 49.4591 131.716 49.631 131.897 49.85C132.151 50.2312 132.302 50.6711 132.337 51.1276ZM134.254 52.552C134.342 51.6586 134.227 50.7567 133.917 49.9142C133.651 49.2088 133.174 48.6026 132.551 48.178C131.883 47.7545 131.104 47.5416 130.314 47.5667C129.545 47.5516 128.787 47.7471 128.122 48.1322C127.489 48.5093 126.976 49.0584 126.643 49.7155C126.273 50.4635 126.091 51.29 126.111 52.1241C126.095 52.9152 126.282 53.6972 126.655 54.3951C127.012 55.0367 127.542 55.566 128.183 55.9234C128.873 56.3043 129.651 56.4962 130.439 56.4797C131.229 56.4857 132.005 56.2651 132.673 55.8439C133.348 55.4247 133.873 54.8033 134.174 54.068L132.31 53.5026C132.148 53.8728 131.877 54.1851 131.533 54.3981C131.168 54.6106 130.751 54.7165 130.329 54.7038C130.019 54.7232 129.708 54.6694 129.423 54.5467C129.137 54.4241 128.884 54.236 128.685 53.9977C128.37 53.5707 128.185 53.0627 128.15 52.5336H134.263L134.254 52.552ZM140 49.5596V47.799C139.743 47.757 139.483 47.7457 139.224 47.7654C138.96 47.7832 138.699 47.8325 138.447 47.9121C138.202 47.9901 137.968 48.1022 137.753 48.2453C137.51 48.3959 137.296 48.5908 137.124 48.8199C137.044 48.926 136.972 49.0373 136.907 49.1531V47.799H135.241V56.2565H137.133V51.9529C137.129 51.6431 137.169 51.3344 137.252 51.0359C137.324 50.7653 137.448 50.5111 137.616 50.2871C137.786 50.0616 138.004 49.8768 138.255 49.746C138.523 49.5875 138.824 49.4933 139.135 49.4709C139.425 49.4439 139.718 49.4677 140 49.5413" fill="black"/>
</svg>
