<svg width="631" height="254" viewBox="0 0 631 254" fill="none" xmlns="http://www.w3.org/2000/svg">
<path d="M478.534 214.86H471.022V252.929H479.552V233.571C479.535 232.177 479.716 230.787 480.088 229.444C480.413 228.226 480.969 227.081 481.726 226.073C482.487 225.059 483.465 224.227 484.587 223.638C485.8 222.926 487.161 222.502 488.563 222.399C489.87 222.278 491.187 222.385 492.457 222.716V214.791C491.302 214.602 490.129 214.551 488.962 214.64C487.771 214.721 486.593 214.943 485.454 215.3C484.352 215.651 483.305 216.156 482.345 216.8C481.24 217.474 480.274 218.352 479.497 219.386C479.142 219.864 478.821 220.365 478.534 220.886V214.86ZM439.805 242.376C439.787 241.621 439.973 240.875 440.341 240.216C440.748 239.577 441.282 239.029 441.91 238.606C442.691 238.093 443.532 237.677 444.414 237.368C445.56 237.002 446.727 236.703 447.908 236.474C449.215 236.199 450.797 235.91 452.627 235.607L456.59 234.961C456.59 235.607 456.59 236.336 456.521 237.176C456.495 238.449 456.239 239.708 455.764 240.89C455.393 241.901 454.837 242.833 454.127 243.642C453.227 244.692 452.116 245.54 450.866 246.132C449.324 246.859 447.632 247.212 445.927 247.164C444.776 247.196 443.631 246.98 442.57 246.531C441.734 246.163 441.019 245.567 440.506 244.811C440.032 244.074 439.788 243.212 439.805 242.335M432.403 237.492C431.766 239.059 431.452 240.74 431.481 242.431C431.462 244.442 431.965 246.423 432.939 248.182C433.964 249.936 435.461 251.366 437.259 252.31C439.415 253.412 441.815 253.951 444.235 253.878C447.214 253.983 450.171 253.32 452.82 251.952C454.687 250.872 456.312 249.421 457.594 247.687V252.819H465.023V229.43C465.032 227.909 464.958 226.389 464.803 224.876C464.656 223.436 464.241 222.036 463.579 220.748C462.396 218.299 460.354 216.37 457.842 215.328C455.011 214.166 451.972 213.599 448.913 213.663C445.127 213.463 441.377 214.491 438.223 216.594C435.609 218.496 433.713 221.226 432.843 224.339L440.603 226.775C440.848 225.894 441.271 225.074 441.846 224.364C442.421 223.654 443.136 223.07 443.946 222.647C445.485 221.864 447.186 221.454 448.913 221.45C451.761 221.45 453.783 222.083 454.98 223.321C456.062 224.594 456.665 226.205 456.686 227.875L452.215 228.522C449.807 228.866 447.564 229.237 445.514 229.636C443.695 229.986 441.899 230.445 440.135 231.012C438.343 231.572 436.672 232.463 435.21 233.64C433.995 234.667 433.051 235.975 432.458 237.451M412.165 210.045C412.633 210.045 413.155 210.045 413.747 210.045C414.296 210.07 414.841 210.158 415.37 210.306C416.644 210.58 417.804 211.232 418.7 212.177C419.501 213.044 420.089 214.085 420.42 215.218C420.756 216.296 420.932 217.418 420.942 218.547C420.934 219.672 420.758 220.79 420.42 221.863C420.089 222.992 419.501 224.028 418.7 224.89C417.804 225.835 416.644 226.487 415.37 226.761C414.839 226.905 414.296 227.002 413.747 227.05C413.155 227.05 412.633 227.118 412.165 227.118H400.044V210.141L412.165 210.045ZM412.509 202.079H391.486V252.832H399.989V235.263H412.454C412.935 235.263 413.554 235.263 414.339 235.263C415.123 235.263 415.852 235.153 416.512 235.057C419.137 234.722 421.63 233.712 423.749 232.126C425.656 230.638 427.136 228.674 428.042 226.431C428.993 224.013 429.46 221.433 429.417 218.836C429.454 216.231 428.987 213.642 428.042 211.214C427.149 208.971 425.677 207.006 423.777 205.518C421.644 203.93 419.137 202.92 416.499 202.588C415.789 202.468 415.072 202.394 414.352 202.368C413.568 202.368 412.976 202.368 412.44 202.368M339.522 238.001C339.513 237.121 339.638 236.244 339.893 235.401C340.276 234.078 341.096 232.924 342.219 232.126C342.749 231.753 343.328 231.452 343.938 231.232L357.366 243.614C356.847 244.025 356.294 244.393 355.715 244.715C355.01 245.107 354.262 245.416 353.486 245.637C352.875 245.843 352.243 245.981 351.602 246.05C350.916 246.123 350.227 246.16 349.538 246.16C347.995 246.144 346.462 245.913 344.984 245.472C343.56 245.113 342.29 244.302 341.366 243.16C340.812 242.488 340.37 241.731 340.059 240.918C339.712 240.003 339.53 239.034 339.522 238.056M331.831 232.869C330.618 236.546 330.676 240.525 331.996 244.165C332.782 246.197 334.018 248.024 335.613 249.509C337.207 250.994 339.118 252.097 341.201 252.736C343.776 253.578 346.47 254 349.18 253.988C350.198 253.988 351.175 253.988 352.138 253.864C353.164 253.769 354.18 253.594 355.179 253.341C356.681 253.019 358.136 252.51 359.513 251.828C360.96 251.114 362.291 250.187 363.461 249.076L368.359 253.74L373.862 247.921L367.547 242.142C367.793 241.179 367.936 240.192 367.974 239.198C368.043 238.015 368.084 236.777 368.084 235.511V226.32H360.613V234.08C360.613 234.644 360.613 235.153 360.613 235.621L347.859 223.817L345.947 222.055C345.342 221.491 344.819 220.969 344.406 220.501C343.815 219.828 343.277 219.11 342.796 218.355C342.329 217.49 342.106 216.516 342.15 215.534C342.113 214.361 342.399 213.2 342.975 212.177C343.59 211.211 344.482 210.454 345.534 210.003C346.781 209.436 348.141 209.159 349.51 209.192C350.474 209.194 351.434 209.305 352.372 209.522C353.315 209.736 354.179 210.213 354.862 210.898C355.683 211.637 356.283 212.59 356.596 213.649L364.988 211.847C364.665 210.677 364.203 209.55 363.612 208.49C361.916 205.603 359.256 203.406 356.101 202.285C354.04 201.61 351.885 201.271 349.717 201.281C348.511 201.283 347.307 201.366 346.112 201.528C344.867 201.696 343.644 202 342.466 202.436C339.809 203.394 337.525 205.172 335.945 207.513C334.351 209.861 333.515 212.641 333.551 215.479C333.509 217.254 333.876 219.015 334.624 220.625C335.465 222.265 336.525 223.783 337.775 225.137C337.194 225.501 336.634 225.896 336.096 226.32C335.534 226.763 335.022 227.266 334.569 227.82C333.36 229.24 332.456 230.893 331.914 232.677M283.884 214.915H276.317V252.984H284.792V233.365C284.732 231.427 284.993 229.494 285.563 227.641C285.971 226.324 286.677 225.119 287.627 224.119C288.423 223.289 289.41 222.666 290.502 222.303C291.534 221.948 292.617 221.767 293.708 221.767C295.284 221.654 296.856 222.041 298.2 222.873C299.544 223.706 300.591 224.941 301.192 226.403C301.789 227.738 302.175 229.159 302.334 230.613C302.491 231.937 302.573 233.269 302.582 234.603V252.929H311.18V231.672C311.18 230.751 311.112 229.567 310.96 228.095C310.78 226.511 310.444 224.949 309.956 223.431C309.421 221.752 308.607 220.176 307.548 218.767C306.391 217.25 304.898 216.021 303.187 215.176C301.002 214.175 298.613 213.704 296.212 213.801C293.04 213.687 289.904 214.5 287.186 216.14C285.902 216.958 284.747 217.964 283.761 219.125L283.884 214.915ZM243.037 214.915H235.47V252.984H244.068V233.365C244.008 231.427 244.269 229.494 244.839 227.641C245.253 226.327 245.958 225.123 246.903 224.119C247.699 223.289 248.686 222.666 249.778 222.303C250.81 221.949 251.893 221.768 252.984 221.767C254.56 221.654 256.133 222.041 257.476 222.873C258.82 223.706 259.867 224.941 260.468 226.403C261.065 227.738 261.451 229.159 261.61 230.613C261.767 231.937 261.85 233.269 261.858 234.603V252.929H270.456V231.672C270.456 230.751 270.388 229.567 270.236 228.095C270.056 226.511 269.72 224.949 269.232 223.431C268.697 221.752 267.883 220.176 266.824 218.767C265.667 217.25 264.174 216.021 262.463 215.176C260.279 214.175 257.889 213.704 255.488 213.801C252.316 213.687 249.18 214.5 246.462 216.14C245.178 216.958 244.023 217.964 243.037 219.125V214.915ZM204.308 242.431C204.289 241.674 204.48 240.927 204.858 240.271C205.255 239.625 205.791 239.075 206.426 238.662C207.204 238.143 208.046 237.727 208.93 237.423C210.072 237.057 211.234 236.758 212.411 236.529C213.787 236.254 215.3 235.965 217.144 235.662L221.106 235.016C221.106 235.662 221.106 236.391 221.106 237.231C221.067 238.503 220.811 239.759 220.35 240.945C219.967 241.95 219.413 242.881 218.712 243.697C217.812 244.747 216.701 245.595 215.452 246.187C213.908 246.912 212.217 247.266 210.512 247.219C209.357 247.25 208.208 247.034 207.142 246.586C206.284 246.231 205.541 245.645 204.995 244.894C204.521 244.156 204.277 243.294 204.294 242.417M196.892 237.575C196.266 239.145 195.957 240.824 195.984 242.514C195.958 244.525 196.461 246.508 197.442 248.265C198.463 250.022 199.961 251.453 201.762 252.392C203.917 253.498 206.317 254.038 208.738 253.96C211.717 254.062 214.672 253.399 217.323 252.034C219.187 250.951 220.811 249.5 222.097 247.769V252.901H229.526V229.512C229.526 227.875 229.526 226.348 229.32 224.958C229.174 223.516 228.754 222.115 228.082 220.831C226.908 218.379 224.87 216.449 222.358 215.41C219.528 214.248 216.488 213.682 213.429 213.746C209.639 213.543 205.884 214.571 202.725 216.676C200.115 218.58 198.224 221.309 197.36 224.422L205.106 226.857C205.351 225.977 205.774 225.156 206.349 224.446C206.924 223.736 207.639 223.152 208.449 222.73C209.992 221.945 211.698 221.534 213.429 221.533C216.263 221.533 218.286 222.166 219.483 223.404C220.575 224.672 221.184 226.285 221.202 227.958L216.717 228.604C214.31 228.948 212.081 229.32 210.017 229.719C208.203 230.07 206.411 230.529 204.652 231.095C202.856 231.656 201.181 232.547 199.712 233.722C198.482 234.749 197.514 236.056 196.892 237.533M125.199 141.158L207.348 136.769V104.974L125.199 137.072V141.158ZM207.307 164.079V141.282L125.199 145.671V150.238L207.307 164.079ZM125.199 132.229L207.417 100.131V67.7311L125.199 126.918V132.229ZM145.354 214.86H137.842V252.929H146.414V229.54C146.32 227.437 147.017 225.376 148.367 223.762C149.013 223.027 149.815 222.446 150.716 222.063C151.616 221.679 152.59 221.503 153.568 221.546C154.558 221.497 155.547 221.671 156.461 222.054C157.375 222.437 158.192 223.021 158.851 223.762C160.236 225.522 160.927 227.73 160.791 229.966V252.984H169.224V229.595C169.186 228.099 169.511 226.617 170.174 225.275C170.742 224.125 171.637 223.167 172.747 222.523C173.859 221.885 175.124 221.562 176.406 221.588C177.391 221.541 178.373 221.714 179.282 222.095C180.192 222.476 181.004 223.055 181.662 223.789C183.041 225.516 183.732 227.692 183.602 229.898V253.025H192.09V227.655C192.257 224.029 191.054 220.474 188.72 217.694C187.487 216.4 185.986 215.391 184.323 214.738C182.659 214.084 180.873 213.802 179.089 213.911C176.69 213.884 174.323 214.466 172.21 215.603C170.297 216.635 168.682 218.142 167.518 219.978C166.599 218.234 165.231 216.766 163.556 215.727C161.399 214.451 158.921 213.82 156.416 213.911C153.979 213.874 151.573 214.461 149.427 215.617C147.869 216.463 146.498 217.614 145.395 219.001L145.354 214.86ZM17.404 227.05L39.1968 202.244H28.7544L8.48874 225.715V202.244H0V252.997H8.48874V229.237L29.8826 252.929H40.6689L17.404 227.05ZM67.6348 252.929H75.1329V214.86H66.6029V234.424C66.6602 236.357 66.4 238.285 65.8324 240.134C65.4295 241.457 64.7228 242.668 63.7687 243.669C62.9748 244.496 61.9931 245.119 60.907 245.486C59.8705 245.839 58.7829 246.021 57.6877 246.022C55.9887 246.109 54.3064 245.651 52.8861 244.715C51.6855 243.874 50.7347 242.723 50.1345 241.386C49.5354 240.041 49.1502 238.611 48.9925 237.148C48.8362 235.833 48.7535 234.51 48.7449 233.186V214.86H40.1874V236.116C40.1874 237.024 40.2562 238.221 40.4075 239.693C40.5873 241.277 40.9237 242.84 41.4118 244.357C41.9455 246.037 42.7595 247.614 43.8195 249.021C44.9693 250.535 46.4522 251.764 48.1533 252.612C50.3383 253.612 52.7278 254.083 55.1287 253.988C58.2993 254.092 61.4327 253.28 64.154 251.649C65.4386 250.831 66.5934 249.824 67.5797 248.664L67.6348 252.929ZM107.877 252.929H116.476V231.672C116.476 230.751 116.476 229.567 116.256 228.095C116.069 226.512 115.733 224.951 115.251 223.431C114.71 221.746 113.886 220.164 112.816 218.754C111.659 217.237 110.166 216.008 108.455 215.163C106.265 214.164 103.871 213.692 101.466 213.787C98.2987 213.676 95.1676 214.488 92.4543 216.126C91.1697 216.944 90.0149 217.951 89.0286 219.111V202.244H81.4479V252.997H90.0467V233.365C89.9902 231.427 90.2552 229.493 90.8309 227.641C91.2339 226.322 91.9407 225.116 92.8946 224.119C93.6914 223.289 94.6783 222.666 95.77 222.303C96.8016 221.948 97.8848 221.767 98.9757 221.767C100.675 221.679 102.357 222.137 103.777 223.074C104.948 223.929 105.874 225.077 106.46 226.403C107.051 227.741 107.436 229.16 107.602 230.613C107.759 231.937 107.842 233.269 107.85 234.603L107.877 252.929ZM131.266 201.116H122.722V252.929H131.211L131.266 201.116ZM207.527 62.159V29.6762L125.199 117.136V121.374L207.527 62.159ZM346.401 117.191L212.356 29.1259V164.134L346.346 150.183L346.401 117.191ZM350.721 149.977L401.736 163.969V0L289.718 74.4725L350.831 113.339L350.721 149.977ZM406.469 41.8246L504.922 112.651V105.057L406.469 0.536565V41.8246ZM406.469 87.7491L504.922 126.189V118.196L406.469 47.3691V87.7491ZM406.469 132.091L504.922 137.347V131.018L406.469 92.5782V132.091ZM406.469 164.093L504.922 150.211V141.846L406.469 136.59V164.093ZM515.557 253.52C518.034 253.569 520.51 253.362 522.945 252.901V245.774C520.845 246.12 518.711 246.217 516.589 246.063C515.77 246.038 514.971 245.809 514.265 245.395C513.558 244.982 512.966 244.398 512.544 243.697C512.058 242.837 511.806 241.864 511.815 240.877C511.815 239.735 511.815 238.386 511.815 236.859V221.505H523V214.846H511.801V204.28H503.353V214.846H496.474V221.505H503.353V237.368C503.353 239.528 503.353 241.496 503.422 243.188C503.483 244.951 503.954 246.675 504.798 248.223C505.743 250.004 507.274 251.404 509.132 252.186C511.177 253.061 513.374 253.528 515.598 253.562M555.098 252.942H563.696V231.672C563.696 230.751 563.614 229.567 563.462 228.095C563.289 226.51 562.953 224.947 562.458 223.431C561.928 221.753 561.119 220.176 560.064 218.767C558.9 217.251 557.403 216.023 555.689 215.176C553.505 214.175 551.115 213.704 548.714 213.801C545.542 213.689 542.407 214.502 539.688 216.14C538.408 216.958 537.257 217.964 536.276 219.125V214.888H528.696V252.956H537.295V233.365C537.241 231.428 537.501 229.495 538.065 227.641C538.479 226.327 539.184 225.123 540.129 224.119C540.928 223.292 541.914 222.669 543.004 222.303C544.036 221.95 545.119 221.769 546.21 221.767C547.913 221.677 549.601 222.135 551.025 223.074C552.196 223.929 553.122 225.077 553.708 226.403C554.299 227.741 554.684 229.16 554.85 230.613C555.007 231.937 555.089 233.269 555.098 234.603V252.942ZM595.67 229.856H576.959C577.237 227.909 577.993 226.061 579.16 224.477C580.109 223.367 581.306 222.498 582.655 221.938C584.003 221.379 585.464 221.146 586.92 221.258C588.194 221.151 589.475 221.354 590.654 221.85C591.833 222.346 592.874 223.12 593.689 224.105C594.831 225.821 595.513 227.801 595.67 229.856ZM604.296 236.268C604.696 232.246 604.178 228.187 602.783 224.394C601.585 221.219 599.438 218.491 596.633 216.58C593.628 214.674 590.119 213.715 586.562 213.828C583.103 213.76 579.692 214.64 576.698 216.373C573.849 218.071 571.539 220.542 570.039 223.5C568.375 226.867 567.554 230.587 567.645 234.341C567.571 237.902 568.415 241.423 570.094 244.564C571.703 247.452 574.085 249.834 576.973 251.443C580.078 253.157 583.58 254.021 587.126 253.947C590.683 253.974 594.174 252.981 597.183 251.085C600.221 249.198 602.585 246.401 603.939 243.092L595.546 240.546C594.816 242.213 593.598 243.619 592.052 244.577C590.409 245.534 588.531 246.01 586.631 245.953C585.235 246.041 583.837 245.798 582.551 245.246C581.266 244.694 580.128 243.848 579.229 242.775C577.814 240.853 576.979 238.566 576.822 236.185H604.338L604.296 236.268ZM630.162 222.798V214.874C629.007 214.685 627.834 214.634 626.667 214.722C625.48 214.803 624.307 215.024 623.172 215.383C622.066 215.734 621.015 216.239 620.049 216.882C618.952 217.561 617.991 218.438 617.215 219.469C616.856 219.946 616.53 220.447 616.238 220.969V214.874H608.74V252.942H617.257V233.571C617.24 232.177 617.42 230.787 617.793 229.444C618.118 228.226 618.674 227.081 619.43 226.073C620.197 225.058 621.179 224.226 622.306 223.638C623.513 222.924 624.869 222.5 626.268 222.399C627.574 222.278 628.892 222.385 630.162 222.716" fill="#F8F7EE"/>
</svg>
